<svg version="1.1" id="Layer_1" xmlns="http://www.w3.org/2000/svg" xmlns:xlink="http://www.w3.org/1999/xlink" x="0px" y="0px"
	 width="100%" viewBox="0 0 706 687" enable-background="new 0 0 706 687" xml:space="preserve">
<path fill="#404040" opacity="1.000000" stroke="none" 
	d="
M0.999999,609.000000 
	C1.000000,435.975098 1.000000,262.950195 1.215155,89.177383 
	C16.453453,43.058640 46.889965,14.247791 93.444908,2.708199 
	C94.380272,2.476349 95.151955,1.584131 96.000000,1.000000 
	C259.691559,1.000000 423.383148,1.000000 587.925049,1.010083 
	C589.563232,1.270720 590.334167,1.621423 591.141235,1.757540 
	C647.194458,11.210665 693.428040,60.948524 693.175293,126.779739 
	C692.610657,273.849060 693.009094,420.922028 692.962402,567.993530 
	C692.960449,574.141418 692.875244,580.348511 692.070007,586.427551 
	C685.733276,634.266052 660.342529,667.825012 615.630554,687.020325 
	C613.336060,686.960083 611.503601,686.998596 609.671143,686.998657 
	C433.062897,687.001282 256.454620,687.000427 79.846359,687.007263 
	C77.852837,687.007324 75.859306,687.102356 73.515099,687.080322 
	C38.976109,672.691528 15.959085,647.798279 3.192447,613.172424 
	C2.653555,611.710876 1.739352,610.387634 0.999999,609.000000 
M288.827057,563.263916 
	C297.932068,561.200562 303.273773,555.159973 306.792450,546.101746 
	C310.225372,535.505676 313.736115,524.934021 317.063568,514.304932 
	C319.241394,507.348145 321.153748,500.308197 323.730804,492.810089 
	C330.398193,471.872009 337.065582,450.933960 344.022247,429.274506 
	C349.954498,410.514648 355.886749,391.754761 362.050781,372.262604 
	C368.209198,352.937225 374.367615,333.611877 380.870880,313.665619 
	C392.947235,275.600830 405.055511,237.546158 417.082458,199.465759 
	C421.239105,186.304825 425.784790,173.224762 429.061432,159.840561 
	C431.911346,148.199310 424.333252,136.641754 413.179199,133.362656 
	C400.937469,129.763794 389.045349,135.111633 384.538727,146.904755 
	C381.280609,155.430786 378.901428,164.292679 375.774567,173.653137 
	C369.853271,192.437225 363.931946,211.221298 357.578766,230.593063 
	C351.544891,249.633133 345.511047,268.673218 339.129730,288.337524 
	C337.156982,294.521759 335.153717,300.696442 333.217560,306.892120 
	C328.753754,321.176605 324.322540,335.471252 319.398926,350.328949 
	C313.920471,367.882507 308.441986,385.436096 302.515900,403.550415 
	C297.032288,421.041779 291.548645,438.533142 285.638519,456.596222 
	C277.556763,481.928345 269.103943,507.149994 261.519440,532.630127 
	C256.164581,550.619812 270.442261,566.574097 288.827057,563.263916 
M246.700378,307.437073 
	C239.821091,300.354279 231.108200,294.446381 231.333237,282.308838 
	C232.163040,275.696350 235.720795,270.618927 240.309830,266.055908 
	C262.118988,244.370377 283.906036,222.662628 305.673676,200.935455 
	C311.320984,195.298645 317.006165,189.689697 322.433105,183.844391 
	C331.418915,174.165939 332.744659,161.759354 325.918213,151.301727 
	C321.813629,145.241638 316.280579,141.232803 309.038513,139.856155 
	C298.643311,137.880112 290.676788,142.357208 283.590851,149.427521 
	C251.666702,181.281158 219.673462,213.065536 187.731995,244.901810 
	C180.778870,251.832077 173.757828,258.707733 167.084778,265.902283 
	C157.289413,276.463165 156.893112,288.825653 165.815765,299.844116 
	C172.830933,306.913757 179.846115,313.983398 187.160568,321.658295 
	C194.728638,329.125824 202.296707,336.593353 210.161087,344.666412 
	C232.964569,367.726501 255.768051,390.786560 279.279846,414.562927 
	C280.375427,411.563293 280.982819,410.058868 281.478424,408.518494 
	C285.862854,394.891479 289.729797,381.069702 294.791473,367.699860 
	C297.657410,360.129700 296.717865,355.209381 290.189911,350.279877 
	C284.789825,346.202026 280.443970,340.738953 275.568420,335.953400 
	C266.065125,326.625549 256.517975,317.342346 246.700378,307.437073 
M412.497467,284.077972 
	C411.626587,283.535767 410.755707,282.993591 409.635406,282.296143 
	C403.929932,300.072906 398.297516,317.305023 392.999146,334.639282 
	C392.490540,336.303314 393.463287,339.187775 394.761322,340.514832 
	C405.126404,351.111481 415.722198,361.482971 426.274963,371.895416 
	C434.455505,379.967194 442.807007,387.870239 450.845184,396.080627 
	C460.811523,406.260468 460.667145,417.700775 450.763855,427.841461 
	C449.483551,429.152435 448.176392,430.437225 446.882385,431.734863 
	C420.888733,457.802277 394.901733,483.876343 368.896973,509.932678 
	C362.356476,516.486084 358.130493,524.062561 359.505310,533.594666 
	C361.020050,544.096680 367.264801,551.193665 377.101410,554.739868 
	C387.016266,558.314209 395.871582,555.589417 403.340820,548.524109 
	C411.083740,541.199829 418.617676,533.651794 426.155579,526.114075 
	C458.076447,494.193939 490.082855,462.357788 521.802063,430.238220 
	C533.173889,418.722931 533.082520,404.910583 521.734680,393.464661 
	C485.616119,357.033752 449.280548,320.818085 412.497467,284.077972 
z"/>
<path fill="#FEFEFE" opacity="1.000000" stroke="none" 
	d="
M616.092590,687.101074 
	C660.342529,667.825012 685.733276,634.266052 692.070007,586.427551 
	C692.875244,580.348511 692.960449,574.141418 692.962402,567.993530 
	C693.009094,420.922028 692.610657,273.849060 693.175293,126.779739 
	C693.428040,60.948524 647.194458,11.210665 591.141235,1.757540 
	C590.334167,1.621423 589.563232,1.270720 588.387695,1.010083 
	C627.647339,1.000000 667.294617,1.000000 706.944336,1.000002 
	C706.946716,230.000000 706.946716,459.000000 706.946716,688.000000 
	C676.908081,688.000000 646.922668,688.000000 616.491455,687.775269 
	C616.045593,687.550476 616.092590,687.101074 616.092590,687.101074 
z"/>
<path fill="#FDFDFD" opacity="1.000000" stroke="none" 
	d="
M95.531342,1.000000 
	C95.151955,1.584131 94.380272,2.476349 93.444908,2.708199 
	C46.889965,14.247791 16.453453,43.058640 1.215155,88.714745 
	C1.000000,59.736954 1.000000,30.473906 1.000000,1.000000 
	C32.353912,1.000000 63.708298,1.000000 95.531342,1.000000 
z"/>
<path fill="#FDFDFD" opacity="1.000000" stroke="none" 
	d="
M0.999999,609.468628 
	C1.739352,610.387634 2.653555,611.710876 3.192447,613.172424 
	C15.959085,647.798279 38.976109,672.691528 73.531471,687.294739 
	C73.898529,687.581970 74.000000,688.000000 74.000000,688.000000 
	C49.736904,688.000000 25.473808,688.000000 1.000000,688.000000 
	C1.000000,661.979492 1.000000,635.958374 0.999999,609.468628 
z"/>
<path fill="#989898" opacity="1.000000" stroke="none" 
	d="
M74.459702,688.000000 
	C74.000000,688.000000 73.898529,687.581970 73.882156,687.367554 
	C75.859306,687.102356 77.852837,687.007324 79.846359,687.007263 
	C256.454620,687.000427 433.062897,687.001282 609.671143,686.998657 
	C611.503601,686.998596 613.336060,686.960083 615.630554,687.020325 
	C616.092590,687.101074 616.045593,687.550476 616.022827,687.775269 
	C435.639801,688.000000 255.279602,688.000000 74.459702,688.000000 
z"/>
<path fill="#FD3279" opacity="1.000000" stroke="none" 
	d="
M412.763123,284.298615 
	C449.280548,320.818085 485.616119,357.033752 521.734680,393.464661 
	C533.082520,404.910583 533.173889,418.722931 521.802063,430.238220 
	C490.082855,462.357788 458.076447,494.193939 426.155579,526.114075 
	C418.617676,533.651794 411.083740,541.199829 403.340820,548.524109 
	C395.871582,555.589417 387.016266,558.314209 377.101410,554.739868 
	C367.264801,551.193665 361.020050,544.096680 359.505310,533.594666 
	C358.130493,524.062561 362.356476,516.486084 368.896973,509.932678 
	C394.901733,483.876343 420.888733,457.802277 446.882385,431.734863 
	C448.176392,430.437225 449.483551,429.152435 450.763855,427.841461 
	C460.667145,417.700775 460.811523,406.260468 450.845184,396.080627 
	C442.807007,387.870239 434.455505,379.967194 426.274963,371.895416 
	C415.722198,361.482971 405.126404,351.111481 394.761322,340.514832 
	C393.463287,339.187775 392.490540,336.303314 392.999146,334.639282 
	C398.297516,317.305023 403.929932,300.072906 409.635406,282.296143 
	C410.755707,282.993591 411.626587,283.535767 412.763123,284.298615 
z"/>
<path fill="#FD466E" opacity="1.000000" stroke="none" 
	d="
M326.108490,151.958466 
	C332.744659,161.759354 331.418915,174.165939 322.433105,183.844391 
	C317.006165,189.689697 311.320984,195.298645 305.673676,200.935455 
	C283.906036,222.662628 262.118988,244.370377 240.309830,266.055908 
	C235.720795,270.618927 232.163040,275.696350 230.842316,282.717804 
	C228.430389,284.391602 226.279495,285.411499 224.627045,286.962463 
	C216.307892,294.770813 208.224075,302.831848 199.838730,310.566864 
	C195.759598,314.329681 191.202194,317.574005 186.861282,321.053040 
	C179.846115,313.983398 172.830933,306.913757 166.044357,299.336182 
	C170.140015,295.426483 174.091675,292.115540 177.859390,288.607056 
	C193.437134,274.101105 208.961716,259.537994 224.501068,244.990784 
	C240.283615,230.215866 256.100067,215.476822 271.828156,200.644135 
	C285.626099,187.631714 299.218842,174.399811 313.129456,161.510056 
	C317.044495,157.882324 321.760101,155.118530 326.108490,151.958466 
z"/>
<path fill="#FC4E69" opacity="1.000000" stroke="none" 
	d="
M326.013367,151.630096 
	C321.760101,155.118530 317.044495,157.882324 313.129456,161.510056 
	C299.218842,174.399811 285.626099,187.631714 271.828156,200.644135 
	C256.100067,215.476822 240.283615,230.215866 224.501068,244.990784 
	C208.961716,259.537994 193.437134,274.101105 177.859390,288.607056 
	C174.091675,292.115540 170.140015,295.426483 165.953873,298.998718 
	C156.893112,288.825653 157.289413,276.463165 167.084778,265.902283 
	C173.757828,258.707733 180.778870,251.832077 187.731995,244.901810 
	C219.673462,213.065536 251.666702,181.281158 283.590851,149.427521 
	C290.676788,142.357208 298.643311,137.880112 309.038513,139.856155 
	C316.280579,141.232803 321.813629,145.241638 326.013367,151.630096 
z"/>
<path fill="#FD3477" opacity="1.000000" stroke="none" 
	d="
M376.130249,173.004791 
	C378.901428,164.292679 381.280609,155.430786 384.538727,146.904755 
	C389.045349,135.111633 400.937469,129.763794 413.179199,133.362656 
	C424.333252,136.641754 431.911346,148.199310 429.061432,159.840561 
	C425.784790,173.224762 421.239105,186.304825 417.082458,199.465759 
	C405.055511,237.546158 392.947235,275.600830 380.388733,313.690186 
	C379.271088,310.333191 378.092957,306.953247 378.082611,303.569794 
	C377.955780,262.105499 378.026764,220.640640 377.920502,179.176224 
	C377.915222,177.117569 376.753479,175.061874 376.130249,173.004791 
z"/>
<path fill="#FD3477" opacity="1.000000" stroke="none" 
	d="
M246.989014,308.040649 
	C256.517975,317.342346 266.065125,326.625549 275.568420,335.953400 
	C280.443970,340.738953 284.789825,346.202026 290.189911,350.279877 
	C296.717865,355.209381 297.657410,360.129700 294.791473,367.699860 
	C289.729797,381.069702 285.862854,394.891479 281.478424,408.518494 
	C280.982819,410.058868 280.375427,411.563293 279.279846,414.562927 
	C255.768051,390.786560 232.964569,367.726501 210.311569,344.195129 
	C219.406738,335.550018 228.461151,327.491699 237.242569,319.146057 
	C240.798096,315.766998 243.758041,311.761230 246.989014,308.040649 
z"/>
<path fill="#FD496C" opacity="1.000000" stroke="none" 
	d="
M319.878113,349.761780 
	C324.322540,335.471252 328.753754,321.176605 333.217560,306.892120 
	C335.153717,300.696442 337.156982,294.521759 339.622620,288.345886 
	C340.410370,290.622101 340.959503,292.889679 340.962311,295.157928 
	C341.013794,337.098236 340.944031,379.038940 341.117767,420.978607 
	C341.130219,423.987946 342.822021,426.990295 343.732971,429.995911 
	C337.065582,450.933960 330.398193,471.872009 323.273285,492.656464 
	C322.543823,490.047668 322.037750,487.592804 322.034882,485.137329 
	C321.986145,443.554169 322.051331,401.970764 321.907928,360.388031 
	C321.895691,356.843658 320.585388,353.303772 319.878113,349.761780 
z"/>
<path fill="#FD4270" opacity="1.000000" stroke="none" 
	d="
M343.877625,429.635193 
	C342.822021,426.990295 341.130219,423.987946 341.117767,420.978607 
	C340.944031,379.038940 341.013794,337.098236 340.962311,295.157928 
	C340.959503,292.889679 340.410370,290.622101 339.796356,288.033752 
	C345.511047,268.673218 351.544891,249.633133 358.062042,230.574860 
	C359.030182,233.107620 359.932556,235.657715 359.937744,238.209656 
	C360.024841,281.073792 359.974731,323.938263 360.077271,366.802338 
	C360.082214,368.867889 361.212677,370.930786 361.819000,372.994904 
	C355.886749,391.754761 349.954498,410.514648 343.877625,429.635193 
z"/>
<path fill="#FD3B74" opacity="1.000000" stroke="none" 
	d="
M361.934875,372.628754 
	C361.212677,370.930786 360.082214,368.867889 360.077271,366.802338 
	C359.974731,323.938263 360.024841,281.073792 359.937744,238.209656 
	C359.932556,235.657715 359.030182,233.107620 358.277985,230.281021 
	C363.931946,211.221298 369.853271,192.437225 375.952393,173.328964 
	C376.753479,175.061874 377.915222,177.117569 377.920502,179.176224 
	C378.026764,220.640640 377.955780,262.105499 378.082611,303.569794 
	C378.092957,306.953247 379.271088,310.333191 380.216309,314.000641 
	C374.367615,333.611877 368.209198,352.937225 361.934875,372.628754 
z"/>
<path fill="#FD5068" opacity="1.000000" stroke="none" 
	d="
M319.638519,350.045349 
	C320.585388,353.303772 321.895691,356.843658 321.907928,360.388031 
	C322.051331,401.970764 321.986145,443.554169 322.034882,485.137329 
	C322.037750,487.592804 322.543823,490.047668 323.000397,492.904175 
	C321.153748,500.308197 319.241394,507.348145 317.063568,514.304932 
	C313.736115,524.934021 310.225372,535.505676 306.434937,545.939575 
	C305.718262,542.992371 305.050568,540.207764 305.046234,537.422119 
	C304.979858,494.628876 305.027649,451.835449 304.913483,409.042419 
	C304.908112,407.023102 303.642303,405.007172 302.963531,402.989655 
	C308.441986,385.436096 313.920471,367.882507 319.638519,350.045349 
z"/>
<path fill="#FD5664" opacity="1.000000" stroke="none" 
	d="
M302.739716,403.270020 
	C303.642303,405.007172 304.908112,407.023102 304.913483,409.042419 
	C305.027649,451.835449 304.979858,494.628876 305.046234,537.422119 
	C305.050568,540.207764 305.718262,542.992371 306.203156,546.240234 
	C303.273773,555.159973 297.932068,561.200562 288.426666,562.754639 
	C288.017487,529.494751 288.053375,496.743866 287.916290,463.993683 
	C287.905151,461.334778 286.710022,458.680786 286.065033,456.024506 
	C291.548645,438.533142 297.032288,421.041779 302.739716,403.270020 
z"/>
<path fill="#FC5D60" opacity="1.000000" stroke="none" 
	d="
M285.851807,456.310364 
	C286.710022,458.680786 287.905151,461.334778 287.916290,463.993683 
	C288.053375,496.743866 288.017487,529.494751 288.037842,562.729797 
	C270.442261,566.574097 256.164581,550.619812 261.519440,532.630127 
	C269.103943,507.149994 277.556763,481.928345 285.851807,456.310364 
z"/>
<path fill="#FD3B74" opacity="1.000000" stroke="none" 
	d="
M246.844696,307.738861 
	C243.758041,311.761230 240.798096,315.766998 237.242569,319.146057 
	C228.461151,327.491699 219.406738,335.550018 210.163422,343.892365 
	C202.296707,336.593353 194.728638,329.125824 187.010925,321.355652 
	C191.202194,317.574005 195.759598,314.329681 199.838730,310.566864 
	C208.224075,302.831848 216.307892,294.770813 224.627045,286.962463 
	C226.279495,285.411499 228.430389,284.391602 230.696182,283.062683 
	C231.108200,294.446381 239.821091,300.354279 246.844696,307.738861 
z"/>
</svg>